<svg width="89" height="54" viewBox="0 0 89 54" fill="none" xmlns="http://www.w3.org/2000/svg">
<path d="M85.9511 17.9448C85.9511 21.499 85.2853 24.5436 83.9538 27.078C82.633 29.6011 80.829 31.5335 78.5417 32.8763C76.2653 34.2181 73.6827 34.89 70.7942 34.89C67.9056 34.89 65.3176 34.2181 63.0305 32.8763C60.754 31.5231 58.9499 29.585 57.6184 27.062C56.2976 24.5276 55.6372 21.4886 55.6372 17.9448C55.6372 14.3905 56.2976 11.3516 57.6184 8.82814C58.9499 6.29395 60.754 4.35564 63.0305 3.01342C65.3176 1.67111 67.9056 1 70.7942 1C73.6827 1 76.2653 1.67111 78.5417 3.01342C80.829 4.35564 82.633 6.29395 83.9538 8.82814C85.2853 11.3516 85.9511 14.3905 85.9511 17.9448ZM79.9431 17.9448C79.9431 15.4428 79.5511 13.3328 78.7673 11.6147C77.9941 9.88583 76.9202 8.58112 75.5458 7.7006C74.1712 6.80932 72.5874 6.36368 70.7942 6.36368C69.0008 6.36368 67.417 6.80932 66.0425 7.7006C64.668 8.58112 63.5889 9.88583 62.8049 11.6147C62.0317 13.3328 61.6453 15.4428 61.6453 17.9448C61.6453 20.4473 62.0317 22.5621 62.8049 24.2913C63.5889 26.0093 64.668 27.3143 66.0425 28.2054C67.417 29.0861 69.0008 29.5264 70.7942 29.5264C72.5874 29.5264 74.1712 29.0861 75.5458 28.2054C76.9202 27.3143 77.9941 26.0093 78.7673 24.2913C79.5511 22.5621 79.9431 20.4473 79.9431 17.9448Z" fill="#194185"/>
<path d="M85.9511 17.9448C85.9511 21.499 85.2853 24.5436 83.9538 27.078C82.633 29.6011 80.829 31.5335 78.5417 32.8763C76.2653 34.2181 73.6827 34.89 70.7942 34.89C67.9056 34.89 65.3176 34.2181 63.0305 32.8763C60.754 31.5231 58.9499 29.585 57.6184 27.062C56.2976 24.5276 55.6372 21.4886 55.6372 17.9448C55.6372 14.3905 56.2976 11.3516 57.6184 8.82814C58.9499 6.29395 60.754 4.35564 63.0305 3.01342C65.3176 1.67111 67.9056 1 70.7942 1C73.6827 1 76.2653 1.67111 78.5417 3.01342C80.829 4.35564 82.633 6.29395 83.9538 8.82814C85.2853 11.3516 85.9511 14.3905 85.9511 17.9448ZM79.9431 17.9448C79.9431 15.4428 79.5511 13.3328 78.7672 11.6147C77.9941 9.88583 76.9202 8.58112 75.5458 7.7006C74.1713 6.80932 72.5874 6.36368 70.7942 6.36368C69.0008 6.36368 67.417 6.80932 66.0425 7.7006C64.668 8.58112 63.5889 9.88583 62.8049 11.6147C62.0317 13.3328 61.6453 15.4428 61.6453 17.9448C61.6453 20.4473 62.0317 22.5621 62.8049 24.2913C63.5889 26.0093 64.668 27.3143 66.0425 28.2054C67.417 29.0861 69.0008 29.5264 70.7942 29.5264C72.5874 29.5264 74.1713 29.0861 75.5458 28.2054C76.9202 27.3143 77.9941 26.0093 78.7672 24.2913C79.5511 22.5621 79.9431 20.4473 79.9431 17.9448Z" stroke="#194185"/>
<path d="M80.8471 6.0896H61.0029V29.7136H80.8471V6.0896Z" fill="#194185"/>
<path d="M27.5508 34.4382V1.45068H33.5266V16.6075H33.9293L46.799 1.45068H54.0956L41.3387 16.2532L54.2084 34.4382H47.0245L37.1829 20.2959L33.5266 24.6125V34.4382H27.5508Z" fill="#194185"/>
<path d="M0 34.4382V1.45068H21.4548V6.46001H5.97579V15.4157H20.3435V20.4254H5.97579V29.4289H21.5837V34.4382H0Z" fill="#194185"/>
<path d="M64.9928 13.8748H65.0323H76.7489C77.1365 13.8748 77.4896 13.8747 77.7724 13.916C78.0831 13.9614 78.4142 14.0701 78.6608 14.3713C78.9048 14.6692 78.9504 15.0144 78.9413 15.3282C78.933 15.618 78.8734 15.9728 78.8072 16.3678L77.8468 22.0968C77.6952 23.0021 77.5724 23.7335 77.4036 24.3062C77.2281 24.9005 76.9841 25.3938 76.5449 25.7746C76.1039 26.1564 75.5849 26.3227 74.9787 26.4002C74.3988 26.4739 73.674 26.4739 72.7832 26.4739H68.9585C68.0677 26.4739 67.343 26.4739 66.7629 26.4002C66.1568 26.3227 65.6378 26.1564 65.1968 25.7746C64.7577 25.3938 64.5136 24.9005 64.3381 24.3062C64.1692 23.7335 64.0466 23.0021 63.8948 22.0968L62.9408 16.4055L62.9344 16.3678C62.8682 15.9728 62.8087 15.618 62.8004 15.3282C62.7914 15.0144 62.8368 14.6692 63.0808 14.3713C63.3275 14.0701 63.6586 13.9614 63.9694 13.916C64.252 13.8747 64.6051 13.8748 64.9928 13.8748Z" fill="white"/>
<path fill-rule="evenodd" clip-rule="evenodd" d="M70.8708 11.1187C69.1312 11.1187 67.721 12.5289 67.721 14.2685V14.6623C67.721 15.0971 67.3684 15.4497 66.9334 15.4497C66.4986 15.4497 66.146 15.0971 66.146 14.6623V14.2685C66.146 11.6591 68.2614 9.5437 70.8708 9.5437C73.4802 9.5437 75.5956 11.6591 75.5956 14.2685V14.6623C75.5956 15.0971 75.243 15.4497 74.8082 15.4497C74.3732 15.4497 74.0206 15.0971 74.0206 14.6623V14.2685C74.0206 12.5289 72.6104 11.1187 70.8708 11.1187Z" fill="white"/>
<path d="M0.884943 51V40.8182H4.90199C5.67424 40.8182 6.33215 40.9657 6.87571 41.2607C7.41927 41.5523 7.83357 41.9583 8.11861 42.4787C8.40696 42.9957 8.55114 43.5923 8.55114 44.2685C8.55114 44.9446 8.4053 45.5412 8.11364 46.0582C7.82197 46.5753 7.39938 46.978 6.84588 47.2663C6.29569 47.5547 5.6295 47.6989 4.8473 47.6989H2.28693V45.9737H4.49929C4.91359 45.9737 5.25497 45.9025 5.52344 45.7599C5.79522 45.6141 5.9974 45.4136 6.12997 45.1584C6.26586 44.8999 6.33381 44.6032 6.33381 44.2685C6.33381 43.9304 6.26586 43.6354 6.12997 43.3835C5.9974 43.1283 5.79522 42.9311 5.52344 42.7919C5.25166 42.6494 4.90696 42.5781 4.48935 42.5781H3.03764V51H0.884943ZM10.0894 51V40.8182H12.2421V49.2251H16.6072V51H10.0894ZM20.1875 51H17.8807L21.3956 40.8182H24.1697L27.6797 51H25.3729L22.8224 43.1449H22.7429L20.1875 51ZM20.0433 46.9979H25.4922V48.6783H20.0433V46.9979ZM27.4133 42.593V40.8182H35.7755V42.593H32.6583V51H30.5304V42.593H27.4133ZM37.2926 51V40.8182H44.0341V42.593H39.4453V45.0192H43.5866V46.794H39.4453V51H37.2926ZM54.9786 45.9091C54.9786 47.0194 54.7681 47.964 54.3472 48.7429C53.9296 49.5218 53.3595 50.1167 52.637 50.5277C51.9177 50.9354 51.109 51.1392 50.2108 51.1392C49.306 51.1392 48.494 50.9337 47.7748 50.5227C47.0555 50.1117 46.4871 49.5168 46.0695 48.7379C45.6519 47.959 45.4431 47.0161 45.4431 45.9091C45.4431 44.7988 45.6519 43.8542 46.0695 43.0753C46.4871 42.2964 47.0555 41.7031 47.7748 41.2955C48.494 40.8845 49.306 40.679 50.2108 40.679C51.109 40.679 51.9177 40.8845 52.637 41.2955C53.3595 41.7031 53.9296 42.2964 54.3472 43.0753C54.7681 43.8542 54.9786 44.7988 54.9786 45.9091ZM52.7961 45.9091C52.7961 45.1899 52.6883 44.5833 52.4729 44.0895C52.2608 43.5956 51.9608 43.2211 51.573 42.9659C51.1853 42.7107 50.7312 42.5831 50.2108 42.5831C49.6905 42.5831 49.2364 42.7107 48.8486 42.9659C48.4608 43.2211 48.1592 43.5956 47.9438 44.0895C47.7317 44.5833 47.6256 45.1899 47.6256 45.9091C47.6256 46.6283 47.7317 47.2348 47.9438 47.7287C48.1592 48.2225 48.4608 48.5971 48.8486 48.8523C49.2364 49.1075 49.6905 49.2351 50.2108 49.2351C50.7312 49.2351 51.1853 49.1075 51.573 48.8523C51.9608 48.5971 52.2608 48.2225 52.4729 47.7287C52.6883 47.2348 52.7961 46.6283 52.7961 45.9091ZM56.7132 51V40.8182H60.7303C61.4992 40.8182 62.1555 40.9557 62.699 41.2308C63.2459 41.5026 63.6619 41.8887 63.9469 42.3892C64.2352 42.8864 64.3794 43.4714 64.3794 44.1442C64.3794 44.8203 64.2336 45.402 63.9419 45.8892C63.6503 46.3731 63.2277 46.7443 62.6742 47.0028C62.124 47.2614 61.4578 47.3906 60.6756 47.3906H57.986V45.6605H60.3276C60.7386 45.6605 61.0799 45.6042 61.3517 45.4915C61.6235 45.3788 61.8257 45.2098 61.9583 44.9844C62.0941 44.759 62.1621 44.4789 62.1621 44.1442C62.1621 43.8061 62.0941 43.5211 61.9583 43.2891C61.8257 43.0571 61.6218 42.8814 61.3467 42.7621C61.075 42.6394 60.7319 42.5781 60.3176 42.5781H58.8659V51H56.7132ZM62.2118 46.3665L64.7423 51H62.3659L59.8901 46.3665H62.2118ZM66.0407 40.8182H68.6956L71.4995 47.6591H71.6189L74.4228 40.8182H77.0777V51H74.9896V44.3729H74.9051L72.2701 50.9503H70.8483L68.2133 44.348H68.1288V51H66.0407V40.8182ZM80.7462 51H78.4394L81.9543 40.8182H84.7285L88.2384 51H85.9316L83.3812 43.1449H83.3016L80.7462 51ZM80.6021 46.9979H86.0509V48.6783H80.6021V46.9979Z" fill="#194185"/>
</svg>
